<?xml version="1.0" ?><!DOCTYPE svg  PUBLIC '-//W3C//DTD SVG 1.1//EN'  'http://www.w3.org/Graphics/SVG/1.1/DTD/svg11.dtd'><svg enable-background="new 0 0 24 24" height="24px" id="Layer_1" version="1.1" viewBox="0 0 24 24" width="24px" xml:space="preserve" xmlns="http://www.w3.org/2000/svg" xmlns:xlink="http://www.w3.org/1999/xlink"><g><path d="M15.6,15.1c-0.1,0.1-0.2,0.2-0.4,0.2c-0.1,0-0.2,0-0.3-0.1c-1.7-1-3.9-1.3-6.4-0.7c-0.3,0.1-0.5-0.1-0.6-0.4   C7.9,14,8,13.7,8.3,13.7c2.8-0.7,5.3-0.4,7.2,0.8C15.7,14.6,15.8,14.9,15.6,15.1z M16.4,13c-0.1,0.1-0.2,0.2-0.4,0.2   c-0.1,0-0.2,0-0.3-0.1c-2-1.2-5-1.6-7.3-0.8c-0.3,0.1-0.5-0.1-0.6-0.3c-0.1-0.3,0.1-0.5,0.3-0.6c2.5-0.8,5.9-0.4,8.1,0.9   C16.5,12.5,16.5,12.8,16.4,13z M17.3,10.7c-0.1,0.2-0.3,0.2-0.4,0.2c-0.1,0-0.2,0-0.2-0.1C14.3,9.5,10.3,9.3,8,10   c-0.3,0.1-0.5-0.1-0.6-0.3C7.4,9.4,7.5,9.2,7.8,9.1c2.5-0.8,6.7-0.6,9.4,0.9C17.3,10.2,17.4,10.5,17.3,10.7z"/><path d="M19.7,0.5H4.3c-2.1,0-3.8,1.7-3.8,3.8v15.4c0,2.1,1.7,3.8,3.8,3.8h15.4c2.1,0,3.8-1.7,3.8-3.8V4.3   C23.5,2.2,21.8,0.5,19.7,0.5z M12,20.2c-4.5,0-8.2-3.7-8.2-8.2c0-4.5,3.7-8.2,8.2-8.2c4.5,0,8.2,3.7,8.2,8.2   C20.2,16.5,16.5,20.2,12,20.2z"/></g></svg>